<svg width="65" height="65" viewBox="0 0 65 65" fill="none" xmlns="http://www.w3.org/2000/svg">
<g clip-path="url(#clip0_3931_55048)">
<path d="M24.9219 27.3618C27.131 27.3618 28.9219 25.571 28.9219 23.3618C28.9219 21.1527 27.131 19.3618 24.9219 19.3618C22.7127 19.3618 20.9219 21.1527 20.9219 23.3618C20.9219 25.571 22.7127 27.3618 24.9219 27.3618Z" fill="white"/>
<path d="M13.6418 46.0285H25.0552C25.0818 45.8685 25.3752 44.4818 25.8285 43.3885C25.5352 43.3885 25.2152 43.3618 24.9218 43.3618C20.8418 43.3618 16.2552 44.6951 13.6418 46.0285Z" fill="white"/>
<path d="M24.9219 32.6955C30.0686 32.6955 34.2553 28.5088 34.2553 23.3621C34.2553 18.2155 30.0686 14.0288 24.9219 14.0288C19.7753 14.0288 15.5886 18.2155 15.5886 23.3621C15.5886 28.5088 19.7753 32.6955 24.9219 32.6955ZM24.9219 19.3621C27.1353 19.3621 28.9219 21.1488 28.9219 23.3621C28.9219 25.5755 27.1353 27.3621 24.9219 27.3621C22.7086 27.3621 20.9219 25.5755 20.9219 23.3621C20.9219 21.1488 22.7086 19.3621 24.9219 19.3621ZM25.0553 46.0288H13.6419C16.2819 44.6955 20.8419 43.3621 24.9219 43.3621C25.2153 43.3621 25.5352 43.3888 25.8286 43.3888C26.7353 41.4421 28.3086 39.8421 30.2019 38.5621C28.2552 38.2155 26.4153 38.0288 24.9219 38.0288C18.6819 38.0288 6.25525 41.1488 6.25525 47.3621V51.3621H24.9219V47.3621C24.9219 46.9088 24.9753 46.4555 25.0553 46.0288ZM44.9219 39.3621C40.0153 39.3621 30.2552 42.0555 30.2552 47.3621V51.3621H59.5886V47.3621C59.5886 42.0555 49.8286 39.3621 44.9219 39.3621ZM48.1486 34.5088C50.1753 33.3621 51.5886 31.2021 51.5886 28.6955C51.5886 25.0155 48.6019 22.0288 44.9219 22.0288C41.2419 22.0288 38.2552 25.0155 38.2552 28.6955C38.2552 31.2021 39.6686 33.3621 41.6953 34.5088C42.6553 35.0421 43.7486 35.3621 44.9219 35.3621C46.0953 35.3621 47.1886 35.0421 48.1486 34.5088Z" fill="white"/>
</g>
<defs>
<clipPath id="clip0_3931_55048">
<rect width="64" height="64" fill="white" transform="translate(0.921875 0.695312)"/>
</clipPath>
</defs>
</svg>
